<svg width="20" height="21" viewBox="0 0 20 21" fill="none" xmlns="http://www.w3.org/2000/svg">
<path d="M14.9999 2.16667V3.83334M4.99992 2.16667V3.83334M9.99659 11.3333H10.0033M9.99659 14.6667H10.0033M13.3258 11.3333H13.3333M6.66659 11.3333H6.67409M6.66659 14.6667H6.67409M2.91659 7.16667H17.0833M2.49992 7.16667H17.4999M2.08325 10.7025C2.08325 7.07167 2.08325 5.25584 3.12659 4.12751C4.16992 3.00001 5.84992 3.00001 9.20825 3.00001H10.7916C14.1499 3.00001 15.8299 3.00001 16.8733 4.12834C17.9166 5.25584 17.9166 7.07167 17.9166 10.7033V11.1308C17.9166 14.7617 17.9166 16.5775 16.8733 17.7058C15.8299 18.8333 14.1499 18.8333 10.7916 18.8333H9.20825C5.84992 18.8333 4.16992 18.8333 3.12659 17.705C2.08325 16.5775 2.08325 14.7617 2.08325 11.13V10.7025Z" stroke-width="1.4" stroke-linecap="round" stroke-linejoin="round"/>
</svg>
