<svg width="20" height="22" viewBox="0 0 20 22" fill="none" xmlns="http://www.w3.org/2000/svg">
<path d="M10.5 1H10.773C14.033 1 15.665 1 16.797 1.798C17.121 2.026 17.409 2.298 17.652 2.603C18.5 3.669 18.5 5.203 18.5 8.273V10.818C18.5 13.781 18.5 15.263 18.031 16.446C17.277 18.349 15.683 19.849 13.661 20.559C12.404 21 10.831 21 7.681 21C5.883 21 4.983 21 4.265 20.748C3.11 20.342 2.199 19.485 1.768 18.398C1.5 17.722 1.5 16.875 1.5 15.182V11" stroke-width="1.6" stroke-linecap="round" stroke-linejoin="round"/>
<path d="M18.5 11C18.5 11.884 18.1488 12.7317 17.5238 13.3568C16.8987 13.9818 16.051 14.333 15.167 14.333C14.501 14.333 13.716 14.217 13.069 14.39C12.7864 14.466 12.5288 14.6149 12.3218 14.8218C12.1149 15.0288 11.966 15.2864 11.89 15.569C11.717 16.216 11.833 17.001 11.833 17.667C11.833 18.1047 11.7468 18.5381 11.5793 18.9425C11.4118 19.3469 11.1663 19.7143 10.8568 20.0238C10.5473 20.3333 10.1799 20.5788 9.77548 20.7463C9.37111 20.9138 8.9377 21 8.5 21M2.5 6.5C2.992 7.006 4.3 9 5 9M5 9C5.7 9 7.008 7.006 7.5 6.5M5 9V1" stroke-width="1.6" stroke-linecap="round" stroke-linejoin="round"/>
</svg>
