<svg width="22" height="22" viewBox="0 0 22 22" fill="none" xmlns="http://www.w3.org/2000/svg">
<path d="M6 6.5L8.942 8.24C10.657 9.254 11.342 9.254 13.058 8.24L16 6.5" stroke="#3D5A80" stroke-width="1.6" stroke-linecap="round" stroke-linejoin="round"/>
<path d="M9.50001 18.5C9.03296 18.4938 8.56595 18.4848 8.09901 18.473C4.95001 18.394 3.37601 18.355 2.24501 17.218C1.11401 16.082 1.08101 14.548 1.01501 11.481C0.99394 10.4968 0.99394 9.51221 1.01501 8.52799C1.08101 5.46099 1.11401 3.92799 2.24501 2.79099C3.37601 1.65499 4.95001 1.61599 8.09901 1.53699C10.0327 1.4882 11.9673 1.4882 13.901 1.53699C17.05 1.61599 18.624 1.65499 19.755 2.79099C20.886 3.92699 20.919 5.46099 20.985 8.52799C20.994 8.98299 20.999 9.19599 21 9.49999" stroke="#3D5A80" stroke-width="1.6" stroke-linecap="round" stroke-linejoin="round"/>
<path d="M18 16C18 16.3978 17.842 16.7794 17.5607 17.0607C17.2794 17.342 16.8978 17.5 16.5 17.5C16.1022 17.5 15.7206 17.342 15.4393 17.0607C15.158 16.7794 15 16.3978 15 16C15 15.6022 15.158 15.2206 15.4393 14.9393C15.7206 14.658 16.1022 14.5 16.5 14.5C16.8978 14.5 17.2794 14.658 17.5607 14.9393C17.842 15.2206 18 15.6022 18 16ZM18 16V16.5C18 16.8978 18.158 17.2794 18.4393 17.5607C18.7206 17.842 19.1022 18 19.5 18C19.8978 18 20.2794 17.842 20.5607 17.5607C20.842 17.2794 21 16.8978 21 16.5V16C21 15.11 20.7361 14.24 20.2416 13.4999C19.7471 12.7599 19.0443 12.1831 18.2221 11.8425C17.3998 11.5019 16.495 11.4128 15.6221 11.5865C14.7492 11.7601 13.9474 12.1887 13.318 12.818C12.6887 13.4474 12.2601 14.2492 12.0865 15.1221C11.9128 15.995 12.0019 16.8998 12.3425 17.7221C12.6831 18.5443 13.2599 19.2471 13.9999 19.7416C14.74 20.2361 15.61 20.5 16.5 20.5" stroke="#3D5A80" stroke-width="1.6" stroke-linecap="round" stroke-linejoin="round"/>
</svg>
