<svg width="20" height="21" viewBox="0 0 20 21" fill="none" xmlns="http://www.w3.org/2000/svg">
<path d="M17.4983 11.3333C17.4994 10.9417 17.5 10.525 17.5 10.0833C17.5 6.35167 17.5 4.48501 16.3408 3.32584C15.1816 2.16667 13.3158 2.16667 9.58329 2.16667C5.85163 2.16667 3.98496 2.16667 2.82579 3.32584C1.66663 4.48501 1.66663 6.35084 1.66663 10.0833C1.66663 13.815 1.66663 15.6817 2.82579 16.8408C3.98496 18 5.85079 18 9.58329 18C10.025 18 10.4416 17.9994 10.8333 17.9983" stroke-width="1.4" stroke-linecap="round" stroke-linejoin="round"/>
<path d="M1.66663 8.00001H17.5M5.41663 5.08334H5.42413M8.74996 5.08334H8.75746M15.4166 13L15.6316 13.5808C15.9133 14.3425 16.0541 14.7233 16.3316 15.0008C16.61 15.2792 16.9908 15.42 17.7525 15.7017L18.3333 15.9167L17.7525 16.1317C16.9908 16.4133 16.61 16.5542 16.3325 16.8317C16.0541 17.11 15.9133 17.4908 15.6316 18.2525L15.4166 18.8333L15.2016 18.2525C14.92 17.4908 14.7791 17.11 14.5016 16.8325C14.2233 16.5542 13.8425 16.4133 13.0808 16.1317L12.5 15.9167L13.0808 15.7017C13.8425 15.42 14.2233 15.2792 14.5008 15.0017C14.7791 14.7233 14.92 14.3425 15.2016 13.5808L15.4166 13Z" stroke-width="1.4" stroke-linecap="round" stroke-linejoin="round"/>
</svg>
