<svg width="24" height="24" viewBox="0 0 24 24" fill="none" xmlns="http://www.w3.org/2000/svg">
<path d="M21.4999 12C21.4999 9.48044 20.499 7.06408 18.7175 5.28249C16.9359 3.50089 14.5195 2.5 11.9999 2.5M20.4999 14.469C18.9664 15.2873 17.2104 15.5911 15.491 15.3354C13.7716 15.0797 12.18 14.2782 10.9509 13.0491C9.72172 11.82 8.92019 10.2283 8.66453 8.50894C8.40887 6.78959 8.71261 5.03359 9.53094 3.5C7.94991 3.87264 6.4971 4.66079 5.32269 5.78296C4.14828 6.90512 3.29489 8.32059 2.85073 9.88304C2.40658 11.4455 2.38778 13.0982 2.79629 14.6703C3.20479 16.2425 4.02577 17.677 5.17436 18.8256C6.32295 19.9742 7.75746 20.7951 9.3296 21.2037C10.9017 21.6122 12.5545 21.5934 14.1169 21.1492C15.6793 20.7051 17.0948 19.8517 18.217 18.6772C19.3392 17.5028 20.1273 16.05 20.4999 14.469Z" stroke-width="1.6" stroke-linecap="round" stroke-linejoin="round"/>
</svg>
