<svg width="22" height="22" viewBox="0 0 22 22" fill="none" xmlns="http://www.w3.org/2000/svg">
<path d="M13.5 21L13.184 20.581C12.474 19.637 12.297 18.194 12.747 17M8.5 21L8.816 20.581C9.526 19.637 9.703 18.194 9.253 17M6 21H16M13 1H9C5.72 1 4.081 1 2.919 1.814C2.48904 2.11507 2.11507 2.48904 1.814 2.919C1 4.08 1 5.72 1 9C1 12.28 1 13.919 1.814 15.081C2.11507 15.511 2.48904 15.8849 2.919 16.186C4.08 17 5.72 17 9 17H13C16.28 17 17.919 17 19.081 16.186C19.511 15.8849 19.8849 15.511 20.186 15.081C21 13.92 21 12.28 21 9C21 5.72 21 4.081 20.186 2.919C19.8849 2.48904 19.511 2.11507 19.081 1.814C17.92 1 16.28 1 13 1Z" stroke="#3D5A80" stroke-width="1.6" stroke-linecap="round" stroke-linejoin="round"/>
<path d="M7 13C8.838 10.405 13.119 10.263 15 13M13 7C13 7.53043 12.7893 8.03914 12.4142 8.41421C12.0391 8.78929 11.5304 9 11 9C10.4696 9 9.96086 8.78929 9.58579 8.41421C9.21071 8.03914 9 7.53043 9 7C9 6.46957 9.21071 5.96086 9.58579 5.58579C9.96086 5.21071 10.4696 5 11 5C11.5304 5 12.0391 5.21071 12.4142 5.58579C12.7893 5.96086 13 6.46957 13 7Z" stroke="#3D5A80" stroke-width="1.6" stroke-linecap="round" stroke-linejoin="round"/>
</svg>
