<svg width="24" height="24" viewBox="0 0 24 24" fill="none" xmlns="http://www.w3.org/2000/svg">
<path d="M12 2V3.5M12 20.5V22M19.07 19.071L18.01 18.011M5.99 5.989L4.928 4.93M22 12H20.5M3.5 12H2M19.071 4.929L18.011 5.989M5.99 18.011L4.93 19.071M17 12C17 13.3261 16.4732 14.5979 15.5355 15.5355C14.5979 16.4732 13.3261 17 12 17C10.6739 17 9.40215 16.4732 8.46447 15.5355C7.52678 14.5979 7 13.3261 7 12C7 10.6739 7.52678 9.40215 8.46447 8.46447C9.40215 7.52678 10.6739 7 12 7C13.3261 7 14.5979 7.52678 15.5355 8.46447C16.4732 9.40215 17 10.6739 17 12Z" stroke-width="1.6" stroke-linecap="round" stroke-linejoin="round"/>
</svg>
