<svg width="24" height="24" viewBox="0 0 24 24" fill="none" xmlns="http://www.w3.org/2000/svg">
<path d="M2.5 9H21.5M13 13H17M13 17H15M7 6H7.009M11 6H11.009M9 9V21.5M2.5 12C2.5 7.522 2.5 5.282 3.891 3.891C5.282 2.5 7.521 2.5 12 2.5C16.478 2.5 18.718 2.5 20.109 3.891C21.5 5.282 21.5 7.521 21.5 12C21.5 16.478 21.5 18.718 20.109 20.109C18.718 21.5 16.479 21.5 12 21.5C7.522 21.5 5.282 21.5 3.891 20.109C2.5 18.718 2.5 16.479 2.5 12Z" stroke-width="1.6" stroke-linecap="round" stroke-linejoin="round"/>
</svg>
